<svg xmlns="http://www.w3.org/2000/svg" width="32" height="32"><path d="M31.52 19.871c-2.137 8.57-10.82 13.789-19.391 11.648S-1.656 20.703.48 12.133 11.297-1.66 19.867.477s13.789 10.82 11.652 19.395zm0 0" fill="#F7931A"/><path d="M23.055 13.719c.32-2.129-1.301-3.273-3.52-4.035l.719-2.883-1.754-.437-.699 2.809-1.406-.332.703-2.828-1.754-.437-.719 2.883-1.121-.262v-.012l-2.422-.602-.465 1.875 1.273.316c.711.176.84.648.82 1.02l-.82 3.285.184.059-.187-.043-1.148 4.602c-.086.215-.305.539-.805.418.02.023-1.273-.32-1.273-.32l-.871 2.008 2.281.57 1.254.324-.727 2.918 1.754.438.719-2.887 1.398.363-.715 2.871 1.754.438.727-2.91c2.992.566 5.246.336 6.191-2.371.766-2.18-.039-3.437-1.613-4.258 1.148-.262 2.012-1.02 2.242-2.578zm-4.012 5.625c-.543 2.18-4.211 1.004-5.402.707l.965-3.863c1.188.297 5.004.883 4.438 3.156zm.543-5.656c-.496 1.984-3.551.977-4.539.73l.871-3.504c.992.246 4.184.707 3.668 2.773zm0 0" fill="#FFF"/></svg>