<svg xmlns="http://www.w3.org/2000/svg" width="32" height="32"><path d="M25.648 2.945C28.996 5.465 31.367 9.07 32 13.25c.441 5.191-.527 9.586-3.937 13.648-2.797 3.004-6.473 5-10.613 5.188-5.062.082-9.152-1.051-12.949-4.586-3.383-3.453-4.605-7.422-4.59-12.152.082-4.5 1.996-8.309 5.199-11.441 5.832-5.117 14.223-5.305 20.539-.961zm0 0" fill="#627EEA"/><path d="M15.75 4h.5l.246.445c1.684 3.023 3.406 6.012 5.262 8.934l.395.625.352.547c.246.449.246.449.246.949-2.285-.664-4.359-1.723-6.5-2.75l-.25 7c-1.449-.578-2.723-1.332-4.062-2.125l-.773-.449-.73-.434-.672-.395C9.25 16 9.25 16 9 15.5c.324-.664.324-.664.828-1.504l.266-.453.875-1.465.59-.996L13.25 8.25l.418-.703 1.465-2.434c.363-.586.363-.586.617-1.113zm0 0" fill="#FBFCFE"/><path d="M9.25 17.25c1.035.375 1.914.883 2.844 1.469l.867.535 1.336.859c.691.438 1.09.645 1.918.582.828-.207 1.406-.488 2.137-.93l.734-.441.758-.465.773-.465L22.5 17.25c0 .852-.113.992-.605 1.648l-.398.539-.434.578-3.867 5.613-.355.547-.309.484-.281.34h-.5c-.336-.469-.336-.469-.734-1.141l-2.375-3.484-.355-.48-1.355-1.82-.852-1.152-.488-.652c-.34-.52-.34-.52-.34-1.02zm0 0" fill="#BCC8F6"/><path d="M15.75 4h.5l.246.445c1.684 3.023 3.406 6.012 5.262 8.934l.395.625.352.547c.246.449.246.449.246.949-1.57-.457-3.023-1.086-4.5-1.781l-.582-.273c-1.383-.66-1.383-.66-1.668-.945a43.89 43.89 0 0 1-.078-1.883l-.016-.57-.047-1.812-.031-1.227L15.75 4zm0 0" fill="#BDCAF6"/><path d="M16 12.5v7.25c-1.449-.578-2.723-1.332-4.062-2.125l-.773-.449-.73-.434-.672-.395C9.25 16 9.25 16 9 15.5l5.094-2.223 1.227-.562c.43-.215.43-.215.68-.215zm0 0" fill="#BFCBF6"/><path d="m16 12.5 1.813.797L23 15.5c-.703.75-1.398 1.285-2.281 1.809l-.738.434-.762.445-.77.457C16.566 19.75 16.566 19.75 16 19.75V12.5zm0 0" fill="#8198EE"/><path d="M9.25 17.25c1.02.371 1.895.863 2.813 1.438l.801.496.418.273a6.21 6.21 0 0 0 1.07.594c.648.352 1.141.664 1.648 1.199.27.961.215 1.852.141 2.844l-.031.773L16 26.75c-1.016-.949-1.777-1.957-2.547-3.109l-.719-1.062-.367-.543-2.098-2.926c-.449-.621-.777-1.129-1.02-1.859zm0 0" fill="#F9FAFE"/></svg>