<svg xmlns="http://www.w3.org/2000/svg" width="32" height="32"><defs><linearGradient id="a" gradientUnits="userSpaceOnUse" x1="6.159" y1="27.063" x2="25.532" y2="5.164"><stop offset=".08" stop-color="#9945FF"/><stop offset=".3" stop-color="#8752F3"/><stop offset=".5" stop-color="#5497D5"/><stop offset=".6" stop-color="#43B4CA"/><stop offset=".72" stop-color="#28E0B9"/><stop offset=".97" stop-color="#19FB9B"/></linearGradient></defs><path d="m27.719 22.09-3.91 4.184a.9.9 0 0 1-.664.285H4.613a.45.45 0 0 1-.414-.27.456.456 0 0 1 .082-.492l3.914-4.18a.9.9 0 0 1 .66-.285h18.531a.45.45 0 0 1 .414.27.456.456 0 0 1-.082.492zm-3.91-8.418a.9.9 0 0 0-.664-.285H4.613a.45.45 0 0 0-.414.27.456.456 0 0 0 .082.492l3.914 4.18a.9.9 0 0 0 .66.285h18.531a.45.45 0 0 0 .414-.27.456.456 0 0 0-.082-.492zM4.613 10.668h18.531a.906.906 0 0 0 .664-.285l3.91-4.18a.456.456 0 0 0 .082-.492.45.45 0 0 0-.414-.27H8.855a.9.9 0 0 0-.66.285L4.281 9.91a.45.45 0 0 0-.082.488c.07.164.234.273.414.27zm0 0" fill="url(#a)"/></svg>